<svg width="126" height="114" viewBox="0 0 126 114" fill="none" xmlns="http://www.w3.org/2000/svg">
<path d="M57.7773 89.3418L63.0126 93.3888L68.2479 89.3418H57.7773Z" fill="#1F5CA9"/>
<path d="M8.50056 107.219L27.9701 92.1696L27.9754 92.1656L62.8748 65.9217C62.875 65.9216 62.8753 65.9214 62.8755 65.9212C62.9091 65.8965 62.958 65.8788 63.0143 65.879L63.0195 65.879C63.0748 65.8786 63.1227 65.8963 63.155 65.9205C63.1551 65.9205 63.1551 65.9205 63.1551 65.9206L98.0308 92.1656L98.036 92.1695L117.5 107.219H8.50056ZM24.6748 62.3656L8.2112 49.6414C8.12877 49.5777 8.0665 49.5015 8.02528 49.4206C7.9842 49.3399 7.96413 49.2547 7.96413 49.1705C7.96413 49.0862 7.9842 49.0011 8.02528 48.9204C8.0665 48.8394 8.12877 48.7633 8.2112 48.6995L23.4025 36.9613C23.5121 36.8768 23.6513 36.8188 23.8046 36.7996C23.958 36.7805 24.1131 36.8019 24.2501 36.8591C24.3869 36.9162 24.4954 37.0046 24.5679 37.1071C24.64 37.209 24.6748 37.322 24.6748 37.4329V37.433V62.3656ZM117.297 52.7865L117.297 52.7864C117.406 52.7017 117.546 52.6435 117.699 52.6242C117.852 52.605 118.008 52.6262 118.145 52.6834C118.282 52.7405 118.39 52.8288 118.463 52.9314C118.535 53.0333 118.57 53.1463 118.57 53.2573V103.466H119.07L118.57 103.467C118.57 103.577 118.536 103.69 118.464 103.791C118.393 103.893 118.285 103.981 118.15 104.039C118.014 104.097 117.86 104.119 117.707 104.101C117.554 104.083 117.415 104.027 117.305 103.944L117.304 103.944L83.7813 78.7071L117.297 52.7865ZM40.4631 80.0421L40.4629 80.0423L8.69472 103.946C8.58432 104.029 8.44508 104.085 8.2924 104.103C8.13968 104.12 7.98582 104.098 7.85017 104.04C7.71468 103.983 7.60743 103.895 7.53573 103.793C7.4645 103.691 7.43001 103.579 7.42999 103.469V53.2562V53.2562C7.42998 53.1452 7.46488 53.0322 7.53701 52.9303C7.60963 52.8277 7.71823 52.7393 7.85519 52.6823C7.99232 52.6251 8.14751 52.6038 8.30096 52.6231C8.45437 52.6424 8.59351 52.7006 8.70298 52.7853L8.70321 52.7854L40.4842 77.3502C40.7069 77.5223 40.8815 77.7334 40.999 77.9661C41.1164 78.1987 41.175 78.4489 41.1731 78.7C41.1712 78.951 41.1088 79.2007 40.9877 79.432C40.8665 79.6635 40.6887 79.8726 40.4631 80.0421Z" fill="white" stroke="#1F5CA9"/>
<path d="M117.927 107.132C117.933 107.136 117.937 107.14 117.939 107.142L117.936 107.149C117.933 107.159 117.922 107.176 117.896 107.193C117.868 107.209 117.831 107.22 117.789 107.219L117.781 107.219H117.772H8.22909H8.22146L8.21383 107.219C8.17149 107.22 8.13352 107.209 8.10599 107.192C8.07892 107.175 8.06764 107.157 8.06369 107.147L8.0637 107.147L8.06282 107.145C8.06329 107.144 8.064 107.143 8.06503 107.142C8.06761 107.138 8.0723 107.133 8.08012 107.128L8.08023 107.128L8.09113 107.12L44.0304 80.0924L62.7106 94.5311L63.0165 94.7675L63.3223 94.531L81.9911 80.0926L117.91 107.119L117.918 107.126L117.927 107.132Z" fill="white" stroke="#1F5CA9"/>
<path d="M64.3446 7.37222L64.345 7.37248L77.8974 17.8415C77.5578 18.6676 77.279 19.5134 77.0629 20.3734H46.8216H46.8216C46.6553 20.3734 46.4968 20.3271 46.3679 20.2458C46.2394 20.1648 46.1499 20.0556 46.1025 19.9394C46.0554 19.8241 46.049 19.7012 46.0827 19.5844C46.1165 19.4667 46.1919 19.3527 46.3086 19.2624L61.6805 7.37229L61.6806 7.37222C62.0457 7.08968 62.5179 6.92944 63.0126 6.92944C63.5073 6.92944 63.9795 7.08968 64.3446 7.37222ZM63.0143 65.879L63.0195 65.879C63.0749 65.8786 63.1228 65.8964 63.1552 65.9206L80.1842 78.7326L67.7358 88.5231L63.4534 91.7173L45.8553 78.7202L62.8748 65.9217C62.875 65.9216 62.8753 65.9214 62.8755 65.9212C62.9091 65.8965 62.958 65.8787 63.0143 65.879ZM101.35 62.3561V44.6744C104.199 44.3565 106.954 43.5346 109.456 42.2537L117.79 48.6995C117.872 48.7633 117.935 48.8394 117.976 48.9204C118.017 49.0011 118.037 49.0862 118.037 49.1705C118.037 49.2547 118.017 49.3399 117.976 49.4206C117.935 49.5015 117.872 49.5776 117.79 49.6414L101.35 62.3561Z" fill="white" stroke="#1F5CA9"/>
<path d="M77.0288 24.7437C77.0372 23.637 77.1493 22.5329 77.364 21.4434H28.3248C27.6571 21.4452 27.0173 21.686 26.5451 22.1132C26.0729 22.5404 25.8068 23.1193 25.8048 23.7234V63.8731L44.0471 77.976L61.7715 64.6437C62.121 64.3807 62.5612 64.2366 63.0158 64.2366C63.4703 64.2366 63.9106 64.3807 64.26 64.6437L81.9743 77.976L100.22 63.8617V44.2537C99.7063 44.2867 99.1922 44.3243 98.6693 44.3243C92.9317 44.3186 87.4308 42.2538 83.3738 38.5829C79.3167 34.912 77.0349 29.9349 77.0288 24.7437ZM40.1436 33.1626H66.3768C66.8914 33.1626 67.385 33.3476 67.7489 33.6768C68.1128 34.006 68.3172 34.4526 68.3172 34.9182C68.3172 35.3838 68.1128 35.8304 67.7489 36.1596C67.385 36.4888 66.8914 36.6738 66.3768 36.6738H40.1436C39.8888 36.6738 39.6365 36.6284 39.4011 36.5402C39.1656 36.4519 38.9517 36.3226 38.7715 36.1596C38.5914 35.9966 38.4484 35.803 38.3509 35.59C38.2534 35.377 38.2032 35.1487 38.2032 34.9182C38.2032 34.6876 38.2534 34.4594 38.3509 34.2464C38.4484 34.0334 38.5914 33.8398 38.7715 33.6768C38.9517 33.5138 39.1656 33.3845 39.4011 33.2962C39.6365 33.208 39.8888 33.1626 40.1436 33.1626ZM40.1436 43.5936H75.2472C75.7618 43.5936 76.2554 43.7786 76.6193 44.1078C76.9832 44.437 77.1876 44.8836 77.1876 45.3492C77.1876 45.8148 76.9832 46.2614 76.6193 46.5906C76.2554 46.9198 75.7618 47.1048 75.2472 47.1048H40.1436C39.629 47.1048 39.1354 46.9198 38.7715 46.5906C38.4076 46.2614 38.2032 45.8148 38.2032 45.3492C38.2032 44.8836 38.4076 44.437 38.7715 44.1078C39.1354 43.7786 39.629 43.5936 40.1436 43.5936ZM85.8816 57.5358H40.1436C39.629 57.5358 39.1354 57.3508 38.7715 57.0216C38.4076 56.6924 38.2032 56.2458 38.2032 55.7802C38.2032 55.3146 38.4076 54.868 38.7715 54.5388C39.1354 54.2096 39.629 54.0246 40.1436 54.0246H85.8816C86.3962 54.0246 86.8898 54.2096 87.2537 54.5388C87.6176 54.868 87.822 55.3146 87.822 55.7802C87.822 56.2458 87.6176 56.6924 87.2537 57.0216C86.8898 57.3508 86.3962 57.5358 85.8816 57.5358Z" fill="#1F5CA9"/>
<path d="M100.85 43.0738C100.726 43.0861 100.599 43.0922 100.473 43.0984C100.388 43.1025 100.304 43.1066 100.22 43.1125L100.187 42.6136C100.187 42.6136 100.187 42.6137 100.186 42.6137C100.158 42.6156 100.13 42.6174 100.102 42.6193C99.6138 42.6519 99.1446 42.6832 98.6693 42.6832L98.6675 42.6832C95.7453 42.6936 92.858 42.12 90.2121 41.0048C87.5663 39.8897 85.2294 38.2615 83.3661 36.2396C81.503 34.2178 80.1594 31.8525 79.4276 29.3136C78.6957 26.775 78.5926 24.1226 79.125 21.5445L79.1258 21.5408C79.1391 21.4737 79.151 21.4108 79.1625 21.3504C79.1865 21.2241 79.2084 21.1089 79.2364 20.9893C79.4282 20.1974 79.6805 19.4181 79.9915 18.6571L79.9915 18.6572L79.9928 18.654C81.3774 15.1979 83.9072 12.2019 87.2483 10.0787C90.5897 7.95523 94.5772 6.81022 98.6698 6.8042L100.85 43.0738ZM100.85 43.0738C106.038 42.571 110.815 40.2871 114.197 36.6926C117.579 33.0982 119.308 28.467 119.029 23.7534C118.749 19.0397 116.482 14.6026 112.694 11.3563C108.906 8.10995 103.887 6.30175 98.6693 6.3042L100.85 43.0738ZM110.294 17.5874L110.294 17.5875L110.299 17.5782C110.59 17.0426 110.639 16.4194 110.432 15.8476C110.225 15.2781 109.787 14.8194 109.227 14.5561C108.668 14.2931 108.022 14.2397 107.424 14.4039C106.825 14.5682 106.307 14.942 105.992 15.4612L105.992 15.4611L105.986 15.472L99.7866 26.2906L99.7864 26.2909L97.3437 30.561L91.0778 23.6498L91.0779 23.6497L91.0694 23.6408C90.6424 23.1924 90.0494 22.9206 89.4198 22.8686C88.7903 22.8166 88.1573 22.9868 87.6538 23.3533L87.6463 23.3588L87.639 23.3645C87.3024 23.629 87.0483 23.9791 86.913 24.3785C86.7599 24.7436 86.7162 25.1418 86.7888 25.5304C86.8624 25.9246 87.0515 26.2876 87.3292 26.5827L95.9447 36.0415L95.945 36.0417C96.179 36.2983 96.4692 36.5019 96.7931 36.6411C97.117 36.7803 97.4686 36.8527 97.8237 36.8546H97.8264H98.028H98.0499L98.0718 36.8527C98.4741 36.8173 98.8627 36.688 99.1996 36.4739C99.5336 36.2616 99.8076 35.9716 99.9903 35.6276L100.552 34.6555L100.558 34.6458L100.563 34.6359L100.659 34.4509L110.294 17.5874Z" fill="white" stroke="#1F5CA9"/>
</svg>
